<svg xmlns="http://www.w3.org/2000/svg" viewBox="0 0 200 200" width="200" height="200">
  <defs>
    <linearGradient id="bgGrad" x1="0%" y1="0%" x2="100%" y2="100%">
      <stop offset="0%" stop-color="#f0fdf4"/><stop offset="100%" stop-color="#dcfce7"/>
    </linearGradient>
    <filter id="dropShadow" x="-10%" y="-10%" width="130%" height="130%">
      <feDropShadow dx="0" dy="6" stdDeviation="6" flood-color="#000000" flood-opacity="0.18"/>
    </filter>
    <filter id="softGlow" x="-20%" y="-20%" width="140%" height="140%">
      <feGaussianBlur stdDeviation="3" result="blur" />
      <feComposite in="SourceGraphic" in2="blur" operator="over" />
    </filter>
  </defs>
  <rect width="200" height="200" rx="28" fill="url(#bgGrad)"/>
  <g filter="url(#dropShadow)">
    <path d="M100,50 C125,50 145,85 140,128 C135,165 105,168 85,152 C65,135 60,110 70,85 C78,65 88,50 100,50 Z" fill="#14532d"/>
     <path d="M100,58 C120,58 136,88 132,124 C128,155 102,158 88,144 C74,130 70,108 78,88 C84,70 92,58 100,58 Z" fill="#bef264"/>
     <circle cx="106" cy="120" r="22" fill="#78350f"/>
     <circle cx="103" cy="116" r="20" fill="#a16207"/>
  </g>
</svg>